<?xml version="1.0" encoding="utf-8"?>
<!-- Generator: Adobe Illustrator 25.0.1, SVG Export Plug-In . SVG Version: 6.00 Build 0)  -->
<svg version="1.1" id="Layer_1" xmlns="http://www.w3.org/2000/svg" xmlns:xlink="http://www.w3.org/1999/xlink" x="0px" y="0px"
	 viewBox="0 0 287.3 344.4" style="enable-background:new 0 0 287.3 344.4;" xml:space="preserve">
<style type="text/css">
	.st0{fill:none;stroke:#FFFFFF;stroke-width:7;stroke-miterlimit:10;}
	.st1{fill:#FFFFFF;}
	.st2{fill:none;stroke:#FFFFFF;stroke-width:6;stroke-miterlimit:10;}
</style>
<g>
	<path class="st0" d="M127.7,86.5c4.5-3.4,8.7-6.6,12.9-9.8c2.8-2.1,5.6-4.2,8.4-6.2c1.2-0.7,1.8-2.1,1.5-3.4
		c-0.5-8.6-0.7-17.3-1-26.5c7.3,5.1,14.2,9.9,20.9,14.8c1.5,1.3,3.6,1.6,5.4,0.7c7.8-3,15.8-5.9,24.1-8.9c-2.5,8.2-4.9,16.1-7.5,24
		c-0.9,2.2-0.4,4.7,1.2,6.4c5.2,6.3,10.2,12.7,15.9,20c-8.6,0-16.5,0.1-24.3-0.1c-3.4-0.1-5.5,0.6-7.4,3.8
		c-3.5,6-7.6,11.6-11.5,17.4c-0.5,0.8-0.8,1.9-2,2.2c-2.7-7.9-5.5-15.6-7.9-23.5c-0.5-2.1-2.2-3.7-4.3-4
		C144.1,91.2,136.2,88.9,127.7,86.5z"/>
	<path class="st0" d="M168.5,191.3c3.2-4.9,6-9.3,8.9-13.8c0.8-1.4,1.7-2.7,2.7-3.9c4.1-4.2,3.7-8.4,1.2-13.3
		c-3-6-5.2-12.4-7.9-18.9c3.3,0.1,6.1,1.4,9,2.1c5.3,1.3,10.5,2.9,15.7,4.4c1.6,0.6,3.5,0.2,4.8-1c6.3-5.6,12.9-11,19.6-16.7
		c0.2,2.3,0.5,4.3,0.6,6.3c0.3,6.4,0.7,12.8,0.8,19.1c-0.2,1.9,0.8,3.6,2.5,4.5c7.2,4.3,14.3,8.9,21.5,13.3c-0.1,1.2-1,1-1.6,1.2
		c-7.3,2.8-14.6,5.6-22,8.2c-1.8,0.5-3.1,2-3.4,3.9c-1.7,7.6-3.6,15.2-5.5,22.8c-0.2,0.7-0.5,1.3-0.8,1.9
		c-5.1-6.4-10.3-12.6-15.2-19c-1.8-2.4-3.6-3.2-6.7-2.8C185,190.4,177,190.7,168.5,191.3z"/>
	<path class="st1" d="M0,196.4c0-3.3,0.3-6.6,1-9.8c1.1-5.8,4.8-10.7,10.1-13.3c13.4-6.8,26.6-14,39.9-20.9c1.7-0.9,2.2-1.6,1.4-3.6
		c-7.5-20.9-13.5-42.1-15.6-64.3c-1.1-11.7-1.2-23.3,2.7-34.6c2.3-7.4,7.5-13.5,14.4-17c20-10.3,39.8-21,59.8-31.5
		c0.7-0.4,1.4-0.7,2.1-1c2.1-1,3.7-0.2,4.8,1.6s0.9,4-0.8,5.1c-10,6.2-11.4,16.4-12.1,26.6c-1.1,16.9,2,33.4,6.3,49.6
		c7.7,29.5,19.4,57.5,33.5,84.5c12.3,23.5,22.7,47.6,29.3,73.4c3.3,12.9,5.6,25.9,5.2,39.3c-0.2,7.1-1.4,14.1-4.9,20.4
		c-1.8,3.4-4.6,6.1-7.9,7.9c-21.2,11.2-42.4,22.4-63.7,33.6c-7,3.7-13.8,1.8-20.3-1.5c-10.6-5.2-19.2-13.2-26.9-22
		c-25-28.6-43.6-60.9-54.3-97.5C1.5,213.3,0.2,204.9,0,196.4z M167.5,286.7c-3,1.5-5.2,1.1-6.5-1.1s-0.3-4.4,2.6-6
		c2.7-1.5,5.4-3,8.2-4.3c1.4-0.5,2.3-2,2-3.5c-0.6-8.1-1.9-16.1-3.7-24c-0.5-2.2-1.2-2.1-2.9-1.2c-5.6,3.1-11.2,6-16.9,9
		c-3.1,1.6-5.5,1.1-6.7-1.3c-1.2-2.4-0.1-4.3,2.9-5.9c6.3-3.4,12.7-6.7,19-10c1.2-0.6,1.9-1.1,1.4-2.7c-2.3-7.7-4.9-15.4-7.7-22.9
		c-0.6-1.6-1.2-1.4-2.4-0.7c-2.7,1.5-5.4,2.9-8.2,4.3c-2.7,1.4-5,0.7-6.1-1.5s-0.2-4.2,2.3-5.6c2.8-1.5,5.6-3.1,8.5-4.4
		c1.8-0.8,2.1-1.7,1.2-3.4c-3.2-6.7-6.4-13.5-9.4-20.3c-0.9-2-1.7-2.1-3.5-1.1c-6.3,3.5-12.7,6.8-19,10.1c-2.8,1.5-5,0.9-6.2-1.3
		s-0.3-4.4,2.4-5.9c6.5-3.5,13-6.9,19.5-10.3c1.2-0.6,1.8-1,1-2.6c-3.5-7-7-14.1-10.3-21.2c-0.7-1.6-1.4-1.5-2.7-0.8
		c-2.8,1.6-5.8,3.1-8.7,4.6c-2.6,1.3-4.8,0.8-6-1.3s-0.5-4.4,2.2-5.9s5.6-3.1,8.5-4.5c1.9-0.9,2.4-1.7,1.5-3.8
		c-2.9-7-5.7-14-8.3-21.1c-0.7-2-1.5-1.7-3-0.9c-5.8,3.1-11.6,6.2-17.5,9.2c-3.2,1.7-5.5,1.3-6.8-1s-0.3-4.5,2.9-6.2
		c6.3-3.3,12.5-6.6,18.8-9.9c1.2-0.6,2.1-1.2,1.5-2.9c-2.6-7.7-4.8-15.5-6.6-23.3c-0.4-1.6-1-1.6-2.2-0.9c-2.2,1.3-4.5,2.5-6.8,3.6
		c-2.8,1.4-5,1-6.2-1.2s-0.4-4.4,2.3-5.9c3-1.6,6-3.2,9-4.8c0.9-0.5,1.9-0.7,1.6-2.1c-1.8-9.2-3-18.4-3.4-27.8c-1.1,0.6-2,1-2.9,1.4
		c-5.2,2.7-10.4,5.5-15.6,8.2c-3.1,1.6-6.1,0.3-6.5-2.7c-0.3-2.3,1.1-3.6,3-4.6c6.8-3.6,13.6-7.1,20.4-10.8c0.9-0.5,2.1-0.8,2.1-2.2
		c0.2-4.9,1.4-9.6,2.6-14.4c-1.2-0.2-1.8,0.5-2.6,0.9c-14.2,7.5-28.4,15-42.6,22.4c-4.2,2.2-7.5,5.8-9.2,10.2
		c-1.7,4.2-2.7,8.5-3.1,13c-1.5,14.1,0.4,27.9,3.3,41.6c6.6,31.1,18.1,60.5,32.4,88.7c9.7,19.2,19.5,38.3,26.4,58.8
		c8,24.1,15,48.4,10.2,74.5c1-0.5,1.9-0.9,2.8-1.4c13.9-7.3,27.7-15,41.9-21.9c8.7-4.2,10.8-11.5,11.9-20.4
		C171.3,284.7,169.4,285.7,167.5,286.7z M61.6,218.2c9.5,16.5,16.9,33.7,17.6,53.5c7-3.7,13.8-7.3,20.6-10.8c1.7-0.9,0.8-2,0.4-3
		c-4.4-13.1-9.6-26-15.8-38.4c-9.6-19.4-19.8-38.4-27.5-58.6c-0.7-1.8-1.4-1.7-2.8-0.9c-7.9,4.2-15.9,8.4-23.8,12.6l-5.7,3
		C41.4,186.3,52.2,201.7,61.6,218.2z M64.6,242.8c-0.5-1.4-1.2-1.4-2.4-0.7c-5.5,3-11.1,5.9-16.7,8.8c-1.4,0.7-1.6,1.3-0.8,2.7
		c3.6,6.2,7.9,12,12.9,17.2c2.2,2.5,4.8,4.5,7.8,6c2.8,1.3,3.9,0.8,4.8-2.2c0.4-1.9,0.6-3.9,0.6-5.9
		C70.5,259.6,67.8,251.2,64.6,242.8L64.6,242.8z"/>
	<path class="st2" d="M228.9,77.3c3.7,0.7,7.2,1.4,10.6,2.1c2.3,0.5,4.6,0.9,6.8,1.5c0.9,0.3,1.8,0,2.4-0.8c4.1-4.1,8.3-8,12.8-12.2
		c0.7,5.9,1.4,11.4,1.9,17c0,1.3,0.8,2.5,2,3c5,2.6,9.9,5.2,15.1,8c-5.2,2.4-10.2,4.7-15.3,6.9c-1.5,0.5-2.5,1.9-2.6,3.4
		c-0.8,5.4-1.8,10.7-2.9,16.8c-3.8-4.3-7.4-8.1-10.7-12.1c-1.4-1.7-2.8-2.5-5.2-2c-4.5,0.9-9.2,1.4-13.8,2c-0.6,0.1-1.3,0.4-2,0
		c2.7-4.8,5.4-9.7,8.2-14.4c0.8-1.2,0.9-2.7,0.1-3.9C233.8,87.5,231.5,82.5,228.9,77.3z"/>
</g>
</svg>
